<?xml version="1.0" encoding="UTF-8"?>
<svg version="1.1" viewBox="0 0 126.68 38.327" xmlns="http://www.w3.org/2000/svg">
<defs>
<clipPath id="a">
<path d="M 0,54.14 H 158.877 V 0 H 0 Z"/>
</clipPath>
</defs>
<g transform="matrix(1.3333 0 0 -1.3333 -73.725 55.257)">
<g transform="translate(63.738 39.365)">
<path d="m0 0h-3.217v-10.136h-1.892v10.136h-3.217v1.869h8.326z" fill="#0f1f47"/>
</g>
<g transform="translate(73.018 39.38)">
<path d="m0 0v-3.076h4.543v-1.876h-4.543v-3.322h5.265v-1.876h-7.149v12.004h7.149v-1.854z" fill="#0f1f47"/>
</g>
<g clip-path="url(#a)">
<g transform="translate(85.567 35.225)">
<path d="m0 0c0 3.381 2.823 6.218 6.196 6.218 1.556-0.023 2.994-0.685 4.171-1.832l-1.096-1.482c-0.841 0.842-1.936 1.4-3.112 1.4-2.175 0-4.253-1.907-4.253-4.312 0-2.42 2.108-4.289 4.261-4.289 1.228 0 2.285 0.61 3.112 1.43l1.088-1.52c-1.035-1.02-2.354-1.802-4.141-1.802-3.403 0-6.226 2.8-6.226 6.189" fill="#0f1f47"/>
</g>
<g transform="translate(112.29 41.234)">
<path d="m0 0v-12.005h-1.884v5.071h-5.198v-5.071h-1.876v12.005h1.876v-5.064h5.198v5.064z" fill="#0f1f47"/>
</g>
<g transform="translate(130.15 41.264)">
<path d="m0 0v-12.243h-0.09l-7.678 8.02v-7.827h-1.883v12.229h0.096l7.663-8.006v7.827z" fill="#0f1f47"/>
</g>
<g transform="translate(148.29 35.231)">
<path d="m0 0c0 2.376-1.943 4.312-4.312 4.312-2.368 0-4.296-1.936-4.296-4.312 0-2.36 1.928-4.289 4.296-4.289 2.369 0 4.312 1.929 4.312 4.289m-10.508-0.015c0 3.426 2.785 6.226 6.204 6.226 3.41 0 6.211-2.8 6.211-6.226 0-3.395-2.801-6.181-6.219-6.181-3.411 0-6.196 2.786-6.196 6.181" fill="#0f1f47"/>
</g>
<g transform="translate(55.294 15.014)">
<path d="m0 0 1.489 1.064c0.536-0.938 1.534-1.474 2.689-1.474 1.347 0 2.368 0.648 2.368 1.564 0 1.11-1.579 1.78-2.979 2.383-1.408 0.625-2.972 1.356-2.972 3.239 0 1.966 1.706 3.337 3.866 3.337 1.712 0 2.994-0.827 3.485-2.145l-1.4-0.968c-0.373 0.812-1.199 1.266-2.07 1.266-1.102 0-1.981-0.685-1.981-1.534 0-0.938 1.109-1.274 2.569-1.899 1.899-0.834 3.373-1.75 3.373-3.642 0-2.129-1.846-3.5-4.282-3.5-1.973 0-3.47 0.923-4.155 2.309" fill="#0f1f47"/>
</g>
<g transform="translate(67.669 18.9)">
<path d="m0 0c0 3.382 2.823 6.219 6.196 6.219 1.556-0.023 2.994-0.685 4.171-1.832l-1.096-1.483c-0.841 0.842-1.936 1.401-3.112 1.401-2.175 0-4.253-1.907-4.253-4.312 0-2.421 2.108-4.29 4.261-4.29 1.228 0 2.285 0.611 3.112 1.431l1.088-1.52c-1.035-1.02-2.354-1.802-4.141-1.802-3.403 0-6.226 2.8-6.226 6.188" fill="#0f1f47"/>
</g>
<path d="m82.427 24.911h1.884v-12.005h-1.884z" fill="#0f1f47"/>
<g transform="translate(91.399 23.057)">
<path d="m0 0v-3.076h4.543v-1.876h-4.543v-3.322h5.265v-1.876h-7.149v12.004h7.149v-1.854z" fill="#0f1f47"/>
</g>
<g transform="translate(111.17 24.94)">
<path d="m0 0v-12.243h-0.089l-7.679 8.02v-7.827h-1.883v12.229h0.096l7.663-8.006v7.827z" fill="#0f1f47"/>
</g>
<g transform="translate(115.8 18.9)">
<path d="m0 0c0 3.382 2.823 6.219 6.196 6.219 1.556-0.023 2.994-0.685 4.171-1.832l-1.095-1.483c-0.842 0.842-1.937 1.401-3.113 1.401-2.175 0-4.252-1.907-4.252-4.312 0-2.421 2.107-4.29 4.26-4.29 1.228 0 2.286 0.611 3.112 1.431l1.088-1.52c-1.035-1.02-2.354-1.802-4.141-1.802-3.403 0-6.226 2.8-6.226 6.188" fill="#0f1f47"/>
</g>
<g transform="translate(132.44 23.057)">
<path d="m0 0v-3.076h4.542v-1.876h-4.542v-3.322h5.265v-1.876h-7.149v12.004h7.149v-1.854z" fill="#0f1f47"/>
</g>
<g transform="translate(141.87 15.014)">
<path d="m0 0 1.489 1.064c0.536-0.938 1.534-1.474 2.689-1.474 1.347 0 2.368 0.648 2.368 1.564 0 1.11-1.579 1.78-2.979 2.383-1.407 0.625-2.971 1.356-2.971 3.239 0 1.966 1.705 3.337 3.865 3.337 1.713 0 2.994-0.827 3.485-2.145l-1.4-0.968c-0.372 0.812-1.199 1.266-2.07 1.266-1.102 0-1.981-0.685-1.981-1.534 0-0.938 1.109-1.274 2.569-1.899 1.899-0.834 3.374-1.75 3.374-3.642 0-2.129-1.847-3.5-4.283-3.5-1.973 0-3.47 0.923-4.155 2.309" fill="#0f1f47"/>
</g>
</g>
</g>
</svg>
